<svg width="124" height="99" viewBox="0 0 124 99" fill="none" xmlns="http://www.w3.org/2000/svg">
<path fill-rule="evenodd" clip-rule="evenodd" d="M45.705 0.20148C45.4489 0.270735 44.541 0.407868 43.6875 0.506017C39.3799 1.0015 33.6477 2.50706 30.2407 4.03785C21.5838 7.92757 15.3088 12.8391 9.85533 19.9939C8.2407 22.1122 6.36844 25.0715 5.30165 27.1915C3.39867 30.9731 1.73763 35.6172 1.17707 38.7229C1.04811 39.4376 0.878637 40.2343 0.800419 40.4933C0.722202 40.7523 0.607359 41.4746 0.545282 42.0985C0.483204 42.7224 0.335305 43.7833 0.216737 44.4559C-0.0366933 45.8927 -0.079837 52.3335 0.151091 54.2402C0.534263 57.4035 0.670367 58.2211 1.18251 60.4319C1.89329 63.5003 2.26063 64.6433 3.58024 67.8933C5.57805 72.8133 7.97423 76.7928 11.3308 80.7649C17.7002 88.3023 25.284 93.4056 34.5311 96.3768C39.2345 97.8882 41.6808 98.3114 47.7225 98.6592C53.0123 98.9636 58.0799 98.4351 63.2695 97.0376C73.5636 94.2656 82.1382 88.7397 89.0134 80.4471C90.6131 78.5177 91.2977 77.5622 92.8383 75.1083C95.9592 70.1378 98.2522 64.179 99.3097 58.2916C100.354 52.4778 100.333 45.9918 99.251 40.0969C98.5559 36.3102 96.1462 29.1919 95.4014 28.7252C95.2467 28.6283 94.2591 29.1158 92.0157 30.3965C90.2738 31.3908 88.4477 32.4156 87.9576 32.6736C87.4613 32.9349 87.066 33.2481 87.0652 33.3807C87.0646 33.5114 87.316 34.2338 87.6239 34.9859C89.6902 40.0316 90.7166 46.512 90.3224 52.0235C89.9462 57.2818 88.6808 61.9517 86.3661 66.6235C83.3313 72.7488 79.0616 77.8048 73.795 81.5097C67.6585 85.8264 61.0114 88.3058 53.8526 88.9484C49.3359 89.3538 45.8223 89.1738 41.7593 88.3288C38.2175 87.5921 36.1007 86.877 32.5108 85.2048C25.2078 81.8031 18.5199 75.5103 14.4639 68.2239C13.0292 65.6466 11.373 61.4007 10.9544 59.2272C10.82 58.5288 10.6096 57.5683 10.487 57.0925C10.2309 56.0996 9.83748 52.9279 9.70665 50.8004C9.47743 47.0746 10.3034 41.232 11.6369 37.1458C12.9756 33.0444 15.9651 27.6671 18.7923 24.2758C20.1779 22.6137 23.6365 19.3381 25.6074 17.8213C27.7395 16.1805 31.6106 13.8926 33.668 13.0573C37.2974 11.5837 37.8538 11.4051 41.3445 10.5939C44.0322 9.96928 45.6322 9.80142 49.6624 9.72146C53.4574 9.64625 53.7154 9.65985 55.9477 10.0524C60.4732 10.848 63.2592 11.6739 66.7337 13.2492C72.361 15.8007 77.2246 19.4747 80.9592 23.9956C81.628 24.8052 82.3577 25.6768 82.5805 25.9321L82.9857 26.3964L84.21 25.7057C84.8835 25.3256 86.063 24.6522 86.8312 24.209C87.5994 23.7658 88.9089 23.0257 89.7411 22.5643C90.8661 21.9405 91.2542 21.6469 91.2542 21.4198C91.2542 21.0503 88.2608 17.3584 86.2804 15.2854C81.0341 9.79362 74.1916 5.43807 66.6561 2.79341C64.3951 1.99996 60.487 1.03529 58.2952 0.72968C57.4309 0.609211 56.0253 0.406033 55.1718 0.278378C53.4822 0.025515 46.563 -0.0305916 45.705 0.20148ZM117.327 4.26931C117.028 4.47554 116.145 4.98616 115.364 5.40398C114.583 5.8218 112.855 6.79901 111.525 7.57564C107.76 9.77329 106.228 10.6416 104.165 11.7474C103.115 12.3105 102.161 12.9174 102.046 13.0963C101.931 13.275 101.575 14.4532 101.255 15.7145C100.936 16.9758 100.597 18.0872 100.504 18.1843C100.41 18.2814 98.9014 19.1681 97.1516 20.1548C95.4017 21.1413 92.9924 22.5129 91.7974 23.2026C90.6024 23.8922 88.7517 24.9429 87.6848 25.5375C86.6178 26.1319 85.1163 26.9779 84.3481 27.4175C82.9335 28.2267 81.1483 29.245 76.5108 31.8878C75.1025 32.6904 73.0772 33.8499 72.0102 34.4645C70.9433 35.079 69.372 35.9709 68.5184 36.4464C67.6648 36.9219 66.4078 37.622 65.7249 38.0026C65.0421 38.3831 64.0294 38.9657 63.4746 39.2975C61.4734 40.494 57.1345 42.9776 54.4734 44.4495C49.9573 46.9477 49.5113 47.2432 49.1829 47.9555C48.8073 48.7702 48.8127 49.3308 49.2038 50.1269C49.5769 50.8859 50.3304 51.2591 51.4898 51.2591C52.1512 51.2591 52.5431 51.0733 55.4053 49.4033C59.6027 46.9544 60.6797 46.3414 65.1817 43.8386C67.273 42.6759 69.9966 41.1319 71.2343 40.4072C72.4719 39.6826 74.4623 38.5468 75.6573 37.8833C76.8523 37.22 78.5284 36.2654 79.3819 35.7619C80.8721 34.8833 86.1893 31.8618 91.2542 29.0155C92.5772 28.2721 94.812 26.9977 96.2204 26.1834C101.694 23.019 102.88 22.3648 103.143 22.3648C103.433 22.3648 107.036 23.3409 107.727 23.6065C108.215 23.7941 108.513 23.6597 111.224 22.0336C112.233 21.4281 113.652 20.6151 114.378 20.2271C116.055 19.33 117.682 18.4093 120.905 16.5344C122.318 15.7122 123.593 14.9949 123.737 14.9402C123.882 14.8856 124 14.7139 124 14.5584C124 14.352 123.843 14.2487 123.418 14.1747C123.098 14.1189 122.452 13.9527 121.982 13.8053C121.513 13.658 120.236 13.3106 119.144 13.0335C118.053 12.7563 117.054 12.4528 116.923 12.3591C116.715 12.2087 116.773 11.7199 117.425 8.17952C117.885 5.68131 118.108 4.11811 118.016 4.03219C117.928 3.94887 117.654 4.04289 117.327 4.26931ZM46.4809 19.6215C43.9296 19.8328 39.7778 20.934 37.3262 22.0497C27.9887 26.2993 21.2797 35.127 19.9373 44.93C19.7168 46.5403 19.6839 47.5609 19.7582 50.4947C19.8447 53.9105 19.8757 54.1965 20.3894 56.3041C22.385 64.4927 27.3388 71.111 34.6087 75.3013C40.2993 78.5813 46.5599 79.8776 53.534 79.2199C55.592 79.0257 59.405 78.1303 61.2243 77.4141C64.2408 76.2262 67.2568 74.3809 70.0883 71.9908C71.5994 70.7153 72.3936 69.8617 74.8456 66.877C76.4224 64.958 78.2956 61.1256 79.147 58.0771C80.1161 54.6067 80.3748 52.8348 80.4135 49.4013C80.4503 46.1367 80.2325 44.538 79.2713 41.0161C78.7433 39.0814 78.4632 38.4172 78.1751 38.4172C78.0707 38.4173 76.8329 39.0831 75.4245 39.8969C74.0161 40.7107 72.0607 41.8197 71.0791 42.3615C70.0975 42.9031 69.2009 43.4203 69.0869 43.5105C68.8562 43.6929 68.8954 44.1074 69.2767 45.5261C69.4122 46.0306 69.568 47.3033 69.6227 48.3544C70.0553 56.6504 64.9494 64.4092 57.058 67.4478C55.2855 68.1304 51.7713 68.8403 50.1648 68.8403C48.6527 68.8403 45.429 68.2537 43.6875 67.6617C40.6901 66.6428 38.127 64.9944 35.8265 62.606C33.1928 59.8716 31.5858 56.805 30.7979 53.01C30.4288 51.2325 30.395 50.8027 30.4686 48.813C30.5648 46.211 30.9653 44.4761 32.0605 41.9204C34.295 36.7051 38.4675 32.8508 43.7076 31.1613C44.7853 30.814 46.2325 30.5009 47.7143 30.2947C49.9812 29.9793 50.0799 29.9779 52.0471 30.234C53.1543 30.3781 54.569 30.6273 55.1909 30.7877C58.0056 31.514 61.2709 33.3734 63.6014 35.577C64.6949 36.6107 64.9322 36.7703 65.1533 36.6202C65.6481 36.2848 69.2964 34.1726 70.3807 33.594C72.1311 32.6599 74.183 31.3783 74.183 31.219C74.183 30.9409 71.894 28.4025 70.6723 27.3259C65.5829 22.8407 59.9897 20.3359 53.4646 19.6194C51.8537 19.4426 48.6311 19.4436 46.4809 19.6215ZM47.246 39.6959C45.4857 40.1719 44.3643 40.7758 43.099 41.9296C41.8343 43.0828 41.1636 44.0482 40.5217 45.6403C39.8489 47.3085 39.6284 48.9634 39.871 50.5242C40.4135 54.0154 42.3078 56.6041 45.4402 58.1352C46.7421 58.7714 48.0808 59.0515 49.8176 59.0511C53.1755 59.0501 55.7705 57.8962 57.6477 55.5689C58.9098 54.0042 59.9052 51.448 59.9052 49.7716C59.9052 48.759 59.756 48.748 58.2756 49.6509C56.7797 50.5633 53.0944 52.5806 52.5622 52.7784C51.4959 53.1747 49.7125 52.7379 48.7488 51.8445C48.4597 51.5765 48.0503 50.9854 47.8392 50.5311C47.1838 49.1209 47.5026 47.2944 48.5865 46.2506C48.9983 45.8539 52.4036 43.7988 54.8325 42.4812C55.4142 42.1656 55.9321 41.7995 55.9836 41.6674C56.1098 41.3433 55.5725 40.9287 54.2406 40.3222C51.9929 39.2988 49.5299 39.0784 47.246 39.6959Z" fill="#0B8EC2"/>
</svg>
