<svg width="100" height="100" viewBox="0 0 100 100" fill="none" xmlns="http://www.w3.org/2000/svg">
<path fill-rule="evenodd" clip-rule="evenodd" d="M47.7156 0.745228C45.7686 0.850169 41.9688 1.29183 40.3696 1.59916C39.8094 1.70666 39.0863 1.8404 38.7627 1.89623C37.6906 2.08126 33.3821 3.38987 31.546 4.08816C23.7965 7.03579 16.8086 12.0519 11.265 18.647C6.94985 23.7802 3.42388 30.5401 1.70469 36.9746C-2.92582 54.3075 2.01221 72.2866 14.8743 84.9247C30.5156 100.294 54.1727 103.814 73.627 93.6688C77.761 91.5128 81.2353 88.9847 84.9479 85.4309C93.214 77.5185 98.2908 67.4114 99.7672 55.9288C100.081 53.4887 100.077 47.1025 99.7596 44.5864C98.8892 37.6806 96.5417 30.7857 93.0435 24.8606C84.3597 10.1519 68.7072 1.08293 51.4315 0.750553C49.8849 0.720767 48.2127 0.718401 47.7156 0.745228ZM54.7458 6.92158C59.8698 7.45516 64.7237 8.7975 69.3478 10.9598C80.4897 16.17 89.0513 25.942 92.6801 37.5903C93.5105 40.2556 93.85 42.0286 94.1328 45.1782C94.415 48.319 94.2702 53.2315 93.8074 56.2247C91.3048 72.4097 79.6214 85.983 63.8158 91.0675C62.6582 91.44 60.3925 92.0158 58.7809 92.3472C56.1936 92.879 55.3317 92.962 51.4171 93.0555C47.8861 93.1399 46.4551 93.0924 44.3868 92.822C29.7053 90.9025 17.0414 82.0172 10.6407 69.1451C8.93559 65.7159 7.4737 61.3526 6.80081 57.6832C6.31833 55.0522 6.26128 54.261 6.25606 50.1097C6.24963 45.1029 6.40852 43.7654 7.54681 39.2431C10.2458 28.5196 17.5723 18.8565 27.4283 13.0206C29.1937 11.9753 30.7454 11.1995 33.7555 9.85717C36.2762 8.733 41.9526 7.35752 45.6065 6.98569C46.2693 6.91822 46.8462 6.83242 46.8882 6.79494C47.0342 6.66514 53.2453 6.76554 54.7458 6.92158ZM47.2134 15.9775C38.6456 16.6736 30.5055 20.5237 24.4083 26.7636C22.4099 28.8087 21.0977 30.4716 19.6828 32.7509C13.6055 42.5424 12.7643 54.1714 17.3751 64.6531C21.3184 73.6175 29.2262 80.8663 38.4917 84.0102C42.3931 85.334 47.6732 86.0783 51.7328 85.8765C57.5545 85.5871 64.1569 83.5437 68.841 80.5819C72.9009 78.0148 74.8527 76.4042 77.0839 73.7806C81.3299 68.7878 83.871 63.5648 85.2223 57.0533C85.7803 54.3643 85.7118 47.0044 85.1027 44.1919C83.776 38.0657 80.9153 32.489 76.5524 27.5236C69.5408 19.5437 58.2091 15.0843 47.2134 15.9775ZM54.5449 21.9919C62.4431 23.1719 69.2821 27.234 74.1872 33.6581C76.3439 36.4827 78.5128 41.309 79.387 45.2279C79.8992 47.5242 79.8996 53.8092 79.388 56.2984C78.5839 60.2095 76.8732 64.2219 74.6102 67.5039C71.9301 71.3913 67.1889 75.3597 62.7779 77.4076C55.8604 80.6194 48.0616 81.0567 40.7733 78.6413C32.511 75.9029 25.8473 69.784 22.5128 61.8732C21.5679 59.6319 20.6652 56.1268 20.4993 54.0548C20.4254 53.1326 20.335 52.0171 20.2987 51.5761C20.2623 51.1348 20.3087 49.8477 20.4019 48.7158C21.225 38.7148 26.9768 30.0509 36.0655 25.1214C38.4302 23.8388 42.2059 22.5744 45.3667 22.0067C47.3436 21.6516 52.2149 21.6437 54.5449 21.9919ZM46.9121 33.2526C40.8434 34.1836 34.5359 37.4709 28.377 42.9129C26.2376 44.8032 24.7508 46.302 23.1346 48.1978L21.9897 49.5408L22.5839 50.2775C23.769 51.7471 26.3571 54.4553 27.8316 55.7688C33.6089 60.9155 38.8906 63.9763 44.5017 65.4295C46.4288 65.9286 46.9229 65.9759 50.2264 65.9785C53.533 65.981 54.0136 65.9357 55.8505 65.4475C56.9553 65.1538 58.3563 64.7271 58.9639 64.4992C62.3109 63.2445 66.4138 60.8194 70.0317 57.9574C71.9064 56.4744 76.5504 51.941 77.7943 50.3797L78.4437 49.5648L77.6925 48.7123C74.1308 44.6705 70.9902 41.7915 67.3333 39.2161C64.6112 37.2991 60.1679 35.0131 57.6487 34.2337C53.9695 33.0954 50.189 32.7498 46.9121 33.2526ZM52.8605 36.793C56.8521 37.5429 61.6422 39.6976 65.7933 42.6101C68.1239 44.2452 72.988 48.517 73.4181 49.306C73.5699 49.5844 73.2968 49.9791 72.0062 51.3461C68.3951 55.1715 62.1514 59.3482 57.357 61.1459C53.1694 62.716 49.7746 62.9932 46.1086 62.0643C41.3733 60.8646 36.7207 58.3921 31.9477 54.5391C30.0094 52.9744 26.8257 49.9138 26.8257 49.6149C26.8257 49.3765 29.1869 46.9403 30.6166 45.7037C34.9085 41.9919 39.7698 39.095 44.0886 37.6751C47.5842 36.5259 50.0956 36.2734 52.8605 36.793ZM47.5147 38.7837C43.6675 39.7804 40.5387 42.7001 39.4803 46.2805C38.7028 48.9115 38.7998 51.2005 39.7949 53.6942C42.1223 59.5262 49.2214 62.2314 55.0471 59.5061C57.0435 58.572 58.3583 57.4676 59.541 55.7309C60.9298 53.6919 61.4613 51.9584 61.446 49.5179C61.4283 46.7233 60.6667 44.5762 58.9987 42.6196L58.4152 41.9349L57.635 42.5144C57.206 42.8332 55.4315 44.1842 53.6921 45.5169C51.9526 46.8496 50.4839 47.9398 50.428 47.9398C50.3724 47.9398 50.3268 45.8094 50.3268 43.2056V38.4714L49.4731 38.4845C49.0037 38.4916 48.1223 38.6263 47.5147 38.7837Z" fill="#0B8EC2"/>
</svg>
