<svg width="18" height="18" viewBox="0 0 18 18" fill="none" xmlns="http://www.w3.org/2000/svg">
<path fill-rule="evenodd" clip-rule="evenodd" d="M17.3337 9.00033C17.3337 4.39866 13.602 0.666992 9.00033 0.666992C4.39866 0.666992 0.666992 4.39866 0.666992 9.00033C0.666992 13.602 4.39866 17.3337 9.00033 17.3337C9.04928 17.3337 9.09798 17.3326 9.14681 17.3318V10.8446H7.35645V8.75809H9.14681V7.22268C9.14681 5.44198 10.2339 4.47279 11.8223 4.47279C12.583 4.47279 13.2368 4.5295 13.4274 4.5548V6.41587H12.3321C11.4679 6.41587 11.3006 6.82658 11.3006 7.42918V8.75809H13.3669L13.0976 10.8446H11.3006V17.0117C14.7838 16.0131 17.3337 12.8041 17.3337 9.00033Z" fill="white"/>
</svg>

