<svg width="80" height="80" viewBox="0 0 80 80" fill="none" xmlns="http://www.w3.org/2000/svg">
<circle cx="40" cy="40" r="40" fill="#0B8EC2"/>
<path fill-rule="evenodd" clip-rule="evenodd" d="M40.6039 27.5718C39.006 28.2978 37.8814 30.2272 38.1987 31.6986C38.3814 32.5453 38.961 33.6693 39.4251 34.0765C41.0567 35.5088 43.8563 35.3368 45.1228 33.7265C45.4339 33.3314 45.5451 32.901 45.5451 32.0947C45.5451 31.4925 45.6435 30.8161 45.7637 30.5917C46.4016 29.3998 43.9946 27.1873 42.0738 27.2003C41.7099 27.2027 41.0485 27.3698 40.6039 27.5718ZM47.8598 28.6865C47.004 29.0595 45.9931 30.2806 45.8326 31.1357C45.1554 34.7455 49.2531 37.1626 51.8634 34.6929C52.7023 33.8991 53.0047 33.1915 53.0047 32.0215C53.0047 29.9526 51.4763 28.3972 49.4588 28.4133C48.914 28.4178 48.1947 28.5405 47.8598 28.6865ZM52.7011 29.7561C53.2876 31.1707 53.4148 31.9617 53.2003 32.8608C52.9355 33.9705 52.0674 35.085 51.1164 35.5364C49.683 36.2164 47.1814 35.7362 46.5034 34.6507C46.1417 34.0715 45.9746 34.1509 45.5397 35.109C44.7351 36.8817 45.1512 38.9837 46.675 40.8434C47.3102 41.6183 47.4784 41.7117 48.2419 41.7117C48.7122 41.7117 49.2731 41.8449 49.4884 42.0076C50.0475 42.4306 50.1247 42.3947 50.234 41.6613C50.3191 41.0915 50.2265 40.9155 49.5247 40.3123C48.2562 39.2218 47.5576 38.1359 47.5846 37.2964C47.5975 36.8973 47.6463 36.7521 47.6933 36.9739C47.7403 37.1956 47.8203 37.5743 47.8715 37.8152C47.9225 38.0561 48.1854 38.516 48.4556 38.8369C48.8586 39.316 49.1209 39.4281 49.9172 39.4611C50.6955 39.4936 51.0076 39.401 51.4926 38.9946C52.067 38.5134 52.0789 38.4732 51.7285 38.2007C51.268 37.8428 51.3543 37.0043 51.8616 36.9077C52.3837 36.8081 54.3851 38.1912 54.666 38.8458C54.7952 39.1468 54.9293 39.4323 54.9637 39.4803C55.1085 39.6799 56.5101 38.1216 56.8554 37.3771C57.0613 36.9335 57.2316 36.6987 57.2341 36.8553C57.2437 37.4718 56.203 38.8513 55.0373 39.767C54.3629 40.2968 53.8111 40.7734 53.8111 40.8258C53.8111 41.2105 54.6891 42.5181 54.9474 42.5181C55.7696 42.5181 58.331 40.147 59.0794 38.6932C59.9015 37.0962 59.7334 34.1717 58.8348 34.4374C57.7211 34.7668 57.1153 34.6592 56.1446 33.9598C55.5984 33.5661 55.2446 33.2441 55.3583 33.2441C55.472 33.2441 55.9409 33.5163 56.4 33.8489C57.4584 34.6156 58.2723 34.6402 58.8366 33.9225C59.5959 32.9574 59.2975 32.302 57.5806 31.1625C56.124 30.1956 55.5698 30.0742 55.0383 30.6056L54.6176 31.0264V30.4254C54.6176 29.9466 54.5149 29.8032 54.1135 29.7198C53.8363 29.6623 53.3712 29.5651 53.0801 29.504C52.6299 29.4097 52.573 29.4474 52.7011 29.7561ZM36.43 30.272C35.8548 30.6201 35.7258 30.7947 35.8725 31.0268C36.1479 31.4627 36.1135 31.6312 35.7481 31.6312C35.5715 31.6312 35.3802 31.8098 35.3232 32.0282C35.2558 32.2858 35.0703 32.4096 34.7949 32.381C34.4518 32.3453 34.2804 32.5608 33.9012 33.5036C32.9091 35.9711 32.8371 38.3748 33.6869 40.6635C34.6966 43.3826 37.254 46.3487 38.5888 46.3487C39.0906 46.3487 39.9001 45.415 39.9001 44.8362C39.9001 44.4784 39.5852 43.9985 38.9019 43.3153C37.7092 42.1226 36.8651 40.9139 36.4064 39.742C35.9866 38.6694 35.9671 36.0198 36.3727 35.1594L36.6578 34.5546L36.5149 35.1594C36.4362 35.492 36.3719 36.5354 36.3719 37.4779C36.3719 38.95 36.4522 39.3549 36.9411 40.3508C37.2542 40.9883 37.9729 42.0161 38.5384 42.6349C39.4576 43.6405 39.6321 43.7477 40.1868 43.6465C41.1233 43.4762 44.2242 44.0504 45.4859 44.6282C46.8272 45.2423 47.0365 45.262 46.7619 44.7491C46.4187 44.108 46.5197 43.0181 46.9762 42.4381L47.3991 41.9004L46.5405 40.9492C45.9917 40.3413 45.348 39.8778 44.7567 39.6649C43.8706 39.346 43.8288 39.295 43.7672 38.4597C43.6688 37.1245 43.87 36.4271 44.7433 35.0759C45.1843 34.3937 45.5451 33.7824 45.5451 33.7179C45.5451 33.6532 45.1877 33.9233 44.7508 34.3181C44.304 34.7217 43.6373 35.0957 43.2272 35.1725C40.2725 35.7269 37.9769 33.9273 38.0027 31.0768C38.013 29.9325 37.9757 29.8167 37.5963 29.8177C37.3665 29.8183 36.8417 30.0228 36.43 30.272ZM55.6992 34.8717C56.1054 35.191 56.2304 35.4684 56.2304 36.0501C56.2304 37.193 55.3266 37.8353 54.2478 37.4593C53.2801 37.1221 52.9263 35.9188 53.5636 35.1332C54.1898 34.3614 54.9347 34.2701 55.6992 34.8717ZM57.4401 36.369C57.4401 36.4245 57.3947 36.4698 57.3393 36.4698C57.2839 36.4698 57.2385 36.4245 57.2385 36.369C57.2385 36.3136 57.2839 36.2682 57.3393 36.2682C57.3947 36.2682 57.4401 36.3136 57.4401 36.369ZM57.4744 41.0171C56.8833 41.5956 56.0667 42.2381 55.6599 42.4447C55.2528 42.6514 54.8879 42.8375 54.8488 42.858C54.8097 42.8786 55.0147 43.4129 55.304 44.0451L55.8305 45.1949L56.8292 45.0765C58.0653 44.9302 59.2395 44.5864 59.7306 44.2274C60.032 44.007 60.0673 43.8465 59.9153 43.3877C59.761 42.9221 59.5945 42.8092 58.986 42.7578L58.2447 42.6953L58.7441 42.0405C59.1854 41.4619 59.2195 41.2994 59.0379 40.6415C58.925 40.2321 58.7687 39.9125 58.6907 39.9313C58.6127 39.95 58.0653 40.4387 57.4744 41.0171ZM50.8787 40.7954C50.5852 41.0887 50.3838 41.5236 50.3838 41.8637C50.3838 42.6179 53.873 50.1779 54.4311 50.6329C55.4799 51.4879 57.2385 50.7014 57.2385 49.3775C57.2385 48.6597 53.9839 41.4345 53.3543 40.754C52.7595 40.1115 51.5422 40.1317 50.8787 40.7954ZM26.231 41.3488C26.0979 41.4818 25.989 41.7115 25.989 41.8591C25.989 42.2784 25.5554 42.3367 24.6881 42.0341C23.7393 41.7026 23.3671 41.8028 23.3711 42.3885C23.3756 43.0145 23.5941 43.2729 24.4879 43.7106C25.1749 44.0471 25.2284 44.1181 24.8802 44.2312C23.6772 44.6217 23.0978 45.0255 22.5085 45.884C22.1496 46.4068 21.5008 47.2279 21.0664 47.709C20.0192 48.8688 20.0029 49.5867 21.0026 50.5031C22.0351 51.4492 23.6217 51.875 26.0899 51.868C30.3488 51.8561 32.2865 50.3994 31.0988 48.1027C30.2152 46.3937 29.2708 45.5919 28.5785 45.9624C28.1912 46.1697 28.1594 46.1487 28.262 45.7558C28.3537 45.4056 28.2394 45.2536 27.6868 44.9901C26.8779 44.6044 26.856 44.5209 27.4281 44.011C27.8432 43.6411 28.4084 42.5518 28.4084 42.1214C28.4084 41.372 26.7842 40.7956 26.231 41.3488ZM32.4976 41.8952C31.5893 42.553 30.8277 43.9268 30.8277 44.9068C30.8277 45.8441 31.3428 46.941 32.1984 47.8263C33.3617 49.0297 33.5192 49.0672 34.4843 48.368C34.948 48.0319 35.3637 47.7934 35.4078 47.8376C35.4522 47.8817 35.3469 48.2563 35.1742 48.67C35.0012 49.0837 34.8599 49.4894 34.8599 49.5716C34.8599 49.749 36.6042 50.546 38.6384 51.298C40.4071 51.9518 41.243 51.8686 42.0049 50.9633C42.6988 50.1388 42.7047 49.0174 42.0194 48.2029C41.5424 47.636 39.1257 46.5503 38.3408 46.5503C37.9652 46.5503 35.8679 45.1556 35.8679 44.9056C35.8679 44.8142 35.5453 44.3167 35.1508 43.8C34.7564 43.2832 34.2556 42.5113 34.0379 42.0845C33.8202 41.6577 33.5667 41.3085 33.4748 41.3085C33.3827 41.3085 32.943 41.5726 32.4976 41.8952ZM47.662 42.1568C46.5092 42.8179 46.499 43.6092 47.6116 46.0818C48.4328 47.9063 48.4917 47.9813 49.0235 47.8779L49.5785 47.7698L49.2802 48.4841C48.9902 49.1783 49.004 49.2426 49.7654 50.7571C50.5509 52.3196 51.0817 52.8002 52.0216 52.8002C52.6118 52.8002 53.6095 51.727 53.6095 51.0924C53.6095 50.3767 50.086 42.7094 49.5533 42.2661C49.0705 41.8641 48.2546 41.8171 47.662 42.1568ZM26.505 42.827C26.2896 42.9897 25.8814 43.1137 25.5977 43.1024C25.1489 43.0844 25.1685 43.0611 25.7473 42.9242C26.1132 42.8375 26.4687 42.7107 26.5368 42.6423C26.6052 42.574 26.714 42.5209 26.7787 42.5246C26.8433 42.528 26.7201 42.6641 26.505 42.827ZM24.981 45.4415C24.981 45.4969 24.9356 45.5423 24.8802 45.5423C24.8248 45.5423 24.7794 45.4969 24.7794 45.4415C24.7794 45.386 24.8248 45.3407 24.8802 45.3407C24.9356 45.3407 24.981 45.386 24.981 45.4415ZM24.4669 45.7086C24.3615 45.8001 23.7403 46.3672 23.0865 46.9686C22.4327 47.5702 21.9942 47.8809 22.1123 47.6592C22.3665 47.1815 23.503 46.0908 24.0738 45.7765C24.5576 45.5102 24.7296 45.4804 24.4669 45.7086ZM56.2304 46.0382C56.2304 46.1046 56.5125 46.7172 56.8572 47.4003C57.3595 48.395 57.4645 48.8148 57.3861 49.5113C57.2738 50.5069 57.4766 50.6186 57.9855 49.842C58.4885 49.0743 58.411 47.861 57.8185 47.2261C57.2677 46.6358 56.2304 45.86 56.2304 46.0382Z" fill="white"/>
</svg>
