<svg width="100" height="99" viewBox="0 0 100 99" fill="none" xmlns="http://www.w3.org/2000/svg">
<path fill-rule="evenodd" clip-rule="evenodd" d="M46.8004 0.299267C32.2569 1.22183 18.9205 8.32747 10.0587 19.8752C-0.115884 33.1337 -2.77627 50.7415 3.01519 66.493C7.83088 79.5906 18.3594 90.2968 31.4778 95.4359C35.9731 97.197 40.5395 98.2735 45.4871 98.7385C47.9299 98.9681 53.3118 98.932 55.4937 98.6716C62.9722 97.7788 69.8204 95.4759 75.9659 91.7878C88.3561 84.3514 96.9397 71.9109 99.326 57.9303C99.8203 55.0343 99.9145 53.9757 99.9843 50.53C100.058 46.8976 99.8785 44.3384 99.3312 41.2105C96.4573 24.7865 85.5031 11.0265 69.9112 4.25554C62.9541 1.2343 54.6011 -0.195591 46.8004 0.299267ZM32.7912 20.3496C33.2727 20.4491 34.1452 20.763 34.7299 21.0471C35.5895 21.4648 36.0108 21.7785 36.9292 22.6849C37.852 23.5955 38.1628 24.0028 38.5853 24.8552C39.2927 26.2823 39.4831 27.1069 39.4831 28.7434C39.4831 30.3799 39.2927 31.2045 38.5853 32.6317C38.1616 33.4866 37.8549 33.8876 36.9292 34.7976C36.0043 35.7069 35.5955 36.0089 34.7299 36.423C30.2869 38.5482 25.0902 36.7899 22.9777 32.4465C22.3311 31.1171 22.1626 30.3518 22.1626 28.7434C22.1626 27.137 22.3307 26.372 22.9759 25.0403C24.1082 22.7033 26.3934 20.8842 28.8601 20.3563C29.9243 20.1285 31.7056 20.1256 32.7912 20.3496ZM72.9428 20.5887C78.7383 22.5262 80.7582 29.5803 76.8506 34.2364C74.0081 37.6233 68.966 38.3312 65.2794 35.8607C64.2623 35.179 62.9995 33.7975 62.4497 32.7647C61.1592 30.3413 61.1631 27.1534 62.4596 24.6947C63.169 23.3492 64.8545 21.7342 66.2638 21.0496C67.7394 20.3327 68.6055 20.1589 70.4411 20.2112C71.6668 20.2463 72.1256 20.3154 72.9428 20.5887ZM53.7728 29.1545C56.6497 29.9188 59.2028 31.6199 60.9928 33.965C63.3863 37.101 64.1677 41.2162 63.1179 45.1568C62.2424 48.4426 59.6507 51.5792 56.4955 53.1712C54.4634 54.1966 52.9733 54.5349 50.4904 54.5349C47.5194 54.5349 45.5584 53.9614 43.1805 52.3971C41.3944 51.2221 39.379 48.885 38.5427 47.0188C37.0455 43.6779 37.063 39.4959 38.5876 36.285C39.4815 34.403 40.7272 32.8632 42.4554 31.5046C44.0539 30.248 45.6858 29.4866 47.7386 29.0399C49.2132 28.719 52.3584 28.7786 53.7728 29.1545ZM23.5834 38.1718C27.7756 40.2672 30.8214 40.7253 34.3248 39.7873C34.8244 39.6535 35.2465 39.5443 35.2629 39.5444C35.2794 39.5445 35.2946 40.5859 35.2967 41.8588C35.3003 43.9871 35.3278 44.27 35.6389 45.3808C36.0615 46.8897 36.5723 48.1088 37.2803 49.2984L37.8298 50.2214L36.6864 50.3747C36.0574 50.459 35.149 50.6443 34.6674 50.7864C32.786 51.3416 30.6002 52.6876 29.4224 54.0164L28.8796 54.6287L25.7695 54.5703C22.401 54.5069 21.948 54.436 20.5387 53.7513C18.9381 52.9737 18.0947 51.8436 17.8217 50.1113C17.6485 49.0116 17.8403 44.9284 18.1527 43.0621C18.649 40.0978 19.5174 38.3087 20.7522 37.7054C21.5794 37.3014 21.9712 37.366 23.5834 38.1718ZM80.4178 37.81C81.9172 38.7482 82.8039 41.3508 83.1328 45.7777C83.4527 50.0864 83.2081 51.4571 81.8856 52.7636C81.5665 53.0789 80.8973 53.532 80.3792 53.7837C79.0078 54.4497 77.961 54.6034 74.7959 54.6034H72.1055L71.5447 53.9881C69.8089 52.0828 67.1543 50.7591 64.2985 50.3747L63.1593 50.2214L63.7699 49.1722C65.2846 46.5695 66.0526 43.2709 65.7674 40.5933C65.7095 40.0502 65.6748 39.5898 65.6903 39.5702C65.7058 39.5506 66.1264 39.6461 66.6248 39.7824C70.0296 40.7135 73.0391 40.2888 77.1044 38.3035C79.1301 37.3143 79.5305 37.2546 80.4178 37.81ZM39.0968 52.8364C39.4124 53.0186 40.3462 53.608 41.1717 54.1461C42.9998 55.3377 43.7001 55.693 45.3111 56.2464C47.3073 56.9321 48.4333 57.1225 50.4904 57.1225C52.5475 57.1225 53.6735 56.9321 55.6697 56.2464C57.2914 55.6893 58.1102 55.2737 59.8662 54.1158C62.4314 52.4245 62.3526 52.4576 63.6032 52.5468C68.6058 52.9036 71.9961 56.4457 73.5468 62.9354C74.1789 65.5808 74.4106 67.6255 74.4279 70.7119C74.4457 73.9102 74.3602 74.4321 73.547 76.0814C73.2122 76.7603 72.8374 77.2568 72.1411 77.9435C70.6013 79.4617 69.0508 80.1503 66.6156 80.3969C64.8709 80.5735 36.087 80.5712 34.3367 80.3942C31.9534 80.1532 30.3713 79.4475 28.8382 77.9415C28.1252 77.2411 27.7752 76.7754 27.4401 76.0814C26.6285 74.4007 26.5378 73.8734 26.5485 70.8971C26.5592 67.9656 26.6881 66.6491 27.2259 63.9846C27.8722 60.7816 28.8932 58.2831 30.3463 56.3492C32.1564 53.9402 34.8022 52.5776 37.7835 52.5194C38.3769 52.5078 38.6364 52.5704 39.0968 52.8364Z" fill="#0B8EC2"/>
</svg>
