<svg width="18" height="18" viewBox="0 0 18 18" fill="none" xmlns="http://www.w3.org/2000/svg">
<path fill-rule="evenodd" clip-rule="evenodd" d="M10.0732 0.667096C11.3922 0.670688 11.7149 0.683581 12.4421 0.718091C13.3279 0.757138 13.9337 0.900352 14.4644 1.10551C15.018 1.31384 15.5228 1.64275 15.9397 2.06603C16.3664 2.48282 16.692 2.9842 16.9037 3.54421C17.1089 4.07178 17.2521 4.68063 17.2912 5.56624C17.3247 6.32817 17.3319 6.64512 17.3333 8.14518L17.3334 9.45689C17.332 11.3078 17.321 11.611 17.2847 12.4364C17.2457 13.322 17.1023 13.9277 16.8972 14.4585C16.4641 15.5785 15.5783 16.4641 14.4579 16.8972C13.9304 17.1023 13.3214 17.2455 12.4356 17.2846C11.5465 17.3238 11.2632 17.3334 8.99982 17.3334L8.76477 17.3334C6.71542 17.3327 6.42126 17.3224 5.56404 17.2846C4.67813 17.2455 4.07246 17.1023 3.5416 16.8972C2.98797 16.6888 2.48319 16.3599 2.06631 15.9366C1.64294 15.5198 1.3141 15.0185 1.10241 14.4585C0.897218 13.9309 0.753849 13.322 0.714794 12.4364C0.682714 11.7062 0.670376 11.3847 0.666992 10.039L0.667097 7.93139C0.670689 6.61262 0.683585 6.28993 0.718102 5.56294C0.757156 4.67733 0.900398 4.07178 1.10559 3.54103C1.3141 2.98751 1.64294 2.48282 2.06631 2.06603C2.48319 1.63944 2.98466 1.31384 3.54491 1.1022C4.07246 0.897172 4.68143 0.753831 5.56722 0.714785C6.29755 0.68271 6.61912 0.670375 7.96517 0.666992L10.0732 0.667096ZM9.87861 2.1807H8.14165C6.6936 2.18353 6.39118 2.19557 5.64215 2.22883C4.83129 2.2647 4.38833 2.40142 4.09523 2.51539C3.73369 2.64881 3.40803 2.86045 3.13783 3.13721C2.8577 3.4043 2.64602 3.73308 2.51245 4.09455C2.39846 4.38759 2.26171 4.82715 2.22596 5.64116C2.18968 6.4521 2.17871 6.74105 2.17728 8.5448V9.4708C2.17871 11.2742 2.18968 11.5606 2.22596 12.3746C2.26171 13.1853 2.39846 13.6282 2.51245 13.9212C2.64602 14.2826 2.8577 14.6082 3.13452 14.8784C3.40154 15.1552 3.73051 15.3668 4.09193 15.5004C4.38503 15.6144 4.82468 15.7511 5.63884 15.7868C6.38516 15.8202 6.68949 15.8321 8.13825 15.835H9.87418C11.3223 15.8321 11.6246 15.8202 12.3736 15.7868C13.1846 15.7511 13.6275 15.6144 13.9206 15.5004C14.6468 15.2203 15.2232 14.644 15.5033 13.9179C15.6173 13.6249 15.7541 13.1853 15.79 12.3713C15.8247 11.5899 15.8363 11.2972 15.8384 9.67994V8.3356C15.8363 6.71775 15.8247 6.4226 15.79 5.64116C15.7541 4.83033 15.6173 4.38759 15.5033 4.09455C15.3698 3.73308 15.1581 3.40748 14.8813 3.13721C14.6143 2.86045 14.2853 2.64881 13.9239 2.51539C13.6308 2.40142 13.1911 2.2647 12.3769 2.22883C11.6306 2.19557 11.3287 2.18353 9.87861 2.1807ZM9.003 4.71968C11.3674 4.71968 13.2855 6.63742 13.2855 9.00134C13.2855 11.3653 11.3674 13.283 9.003 13.283C6.63874 13.283 4.72049 11.3653 4.72049 9.00134C4.72049 6.63742 6.63874 4.71968 9.003 4.71968ZM9.003 6.22393C7.46919 6.22393 6.22504 7.4677 6.22504 9.00134C6.22504 10.535 7.46919 11.7787 9.003 11.7787C10.5369 11.7787 11.781 10.535 11.781 9.00134C11.781 7.4677 10.5369 6.22393 9.003 6.22393ZM13.4548 3.55082C14.0071 3.55082 14.4547 3.99827 14.4547 4.55039C14.4547 5.10239 14.0071 5.54996 13.4548 5.54996C12.9027 5.54996 12.4551 5.10239 12.4551 4.55039C12.4551 3.99827 12.9027 3.55082 13.4548 3.55082Z" fill="white"/>
</svg>
