<svg width="80" height="80" viewBox="0 0 80 80" fill="none" xmlns="http://www.w3.org/2000/svg">
<circle cx="40" cy="40" r="40" fill="#0B8EC2"/>
<path fill-rule="evenodd" clip-rule="evenodd" d="M35.7958 26.1677C35.7543 26.191 34.5984 27.0104 33.227 27.9885C31.8556 28.9666 29.9649 30.3148 29.0255 30.9844C27.4858 32.082 27.3117 32.214 27.2586 32.3236L27.1997 32.4453L27.2003 40.7174C27.2009 48.6837 27.2029 48.9937 27.2531 49.1031C27.2818 49.1655 27.3294 49.2379 27.3589 49.2639C27.3884 49.2899 27.8277 49.5384 28.3351 49.8159C28.8424 50.0935 30.7456 51.1355 32.5643 52.1315C35.4551 53.7146 35.8861 53.9424 35.9904 53.9425C36.1077 53.9426 37.2342 53.5182 49.4372 48.8767C51.1068 48.2416 52.508 47.7039 52.5509 47.6817C52.5938 47.6595 52.6647 47.5944 52.7085 47.5371L52.788 47.4328L52.7958 42.3782C52.8043 36.7976 52.8159 37.1706 52.6287 37.0131C52.5336 36.933 52.432 36.8999 49.907 36.1253L48.1614 35.5897L48.1472 33.9163C48.1318 32.098 48.1376 32.1612 47.9725 32.0127C47.9359 31.9798 45.2683 30.6465 42.0446 29.0498C36.7722 26.4385 36.1676 26.1457 36.0272 26.136C35.9233 26.1288 35.8459 26.1394 35.7958 26.1677ZM38.5324 29.4499C39.2526 29.761 39.8713 30.0348 39.9072 30.0584L39.9726 30.1012V31.8547C39.9726 33.1806 39.9643 33.6165 39.9385 33.6422C39.9198 33.661 39.874 33.6763 39.8367 33.6763C39.7994 33.6763 39.1601 33.4903 38.4161 33.263C37.4366 32.9638 37.0495 32.8336 37.0135 32.7915C36.9673 32.7374 36.9639 32.6039 36.9639 30.8791C36.9639 29.7862 36.9748 28.9961 36.9906 28.9546C37.0189 28.8803 37.0857 28.8495 37.1714 28.8713C37.1997 28.8785 37.8121 29.1389 38.5324 29.4499ZM34.7783 29.2484C34.8339 29.304 34.835 29.343 34.835 31.1447C34.835 32.572 34.8271 32.9949 34.7996 33.0319C34.769 33.0729 33.2696 33.7588 32.9901 33.8596C32.8717 33.9023 32.776 33.8701 32.7516 33.7795C32.7427 33.7461 32.7352 32.9773 32.735 32.0709C32.7347 30.7958 32.7426 30.4124 32.7701 30.3764C32.8206 30.3101 34.612 29.1959 34.6718 29.1935C34.6991 29.1925 34.747 29.2171 34.7783 29.2484ZM43.1367 31.4385C43.8897 31.7659 44.0797 31.8594 44.1084 31.9165C44.1358 31.9707 44.1443 32.3229 44.1446 33.4074C44.1451 34.9488 44.1446 34.9536 43.9907 34.9536C43.9029 34.9536 42.0765 34.3923 41.9949 34.3402L41.9311 34.2994V32.6879C41.9311 31.4369 41.939 31.0682 41.9666 31.0399C41.9882 31.0177 42.0408 31.009 42.1014 31.0175C42.156 31.0252 42.6219 31.2146 43.1367 31.4385ZM31.5343 31.3204C31.5769 31.405 31.5876 34.3382 31.5457 34.4484C31.5257 34.5009 31.3831 34.5749 30.8574 34.8055C30.4926 34.9654 30.1697 35.0961 30.1397 35.0959C30.1097 35.0957 30.0618 35.0743 30.0333 35.0485C29.9843 35.0042 29.9814 34.9206 29.9814 33.5627C29.9814 32.1365 29.9819 32.1235 30.041 32.0699C30.0739 32.0401 30.3772 31.841 30.7152 31.6273C31.378 31.2082 31.462 31.1767 31.5343 31.3204ZM46.3915 32.84C46.7717 33.0048 47.1052 33.166 47.1325 33.1982C47.1781 33.2521 47.1821 33.3578 47.1821 34.5104C47.1821 35.8655 47.1794 35.8908 47.0315 35.8898C46.9077 35.889 45.5251 35.4419 45.4875 35.3905C45.4586 35.3508 45.4507 35.0507 45.4507 33.9831C45.4507 32.6451 45.4515 32.6252 45.5099 32.5668C45.5502 32.5266 45.5901 32.5129 45.6347 32.5241C45.6707 32.5331 46.0113 32.6753 46.3915 32.84ZM29.1704 32.7558C29.2097 32.7951 29.2149 32.9596 29.2146 34.1395C29.2143 34.8761 29.2037 35.4951 29.1909 35.5152C29.162 35.5608 28.1804 36.0038 28.1082 36.0038C28.0791 36.0038 28.0352 35.9837 28.0107 35.9592C27.9715 35.92 27.9661 35.7612 27.9661 34.6437C27.9661 33.4693 27.9699 33.3695 28.0158 33.3282C28.0431 33.3037 28.2698 33.1557 28.5196 32.9993C28.9804 32.7108 29.0859 32.6713 29.1704 32.7558ZM38.5071 36.5006C39.2388 36.6332 39.8478 36.7418 39.8605 36.7418C39.8731 36.7418 39.9034 36.7618 39.928 36.7864C39.9675 36.826 39.9726 37.0271 39.9726 38.5725C39.9726 40.512 39.9839 40.4047 39.779 40.4019C39.7215 40.4011 39.0838 40.3653 38.3618 40.3225C37.4399 40.2677 37.0385 40.2339 37.0136 40.209C36.986 40.1814 36.9763 39.7501 36.9704 38.2832C36.9636 36.6183 36.9679 36.385 37.0065 36.3261C37.0308 36.289 37.0784 36.2593 37.1135 36.2593C37.1483 36.2593 37.7754 36.3679 38.5071 36.5006ZM34.7904 36.4458C34.8301 36.4854 34.835 36.6966 34.835 38.3431C34.835 40.1037 34.8325 40.1982 34.783 40.2429C34.7414 40.2806 34.5638 40.3042 33.8969 40.3609C33.4382 40.3998 33.0089 40.4317 32.9429 40.4317C32.724 40.4317 32.7346 40.5228 32.7346 38.6426C32.7346 37.306 32.742 36.9696 32.7723 36.9282C32.799 36.8916 33.0669 36.8088 33.7018 36.641C34.1924 36.5113 34.628 36.4043 34.6698 36.4032C34.7116 36.4021 34.7659 36.4212 34.7904 36.4458ZM43.1032 37.3382C43.9024 37.4829 44.0532 37.5179 44.0954 37.5684C44.1413 37.6234 44.145 37.7389 44.145 39.0835C44.145 40.4649 44.1423 40.5423 44.0918 40.6047L44.0385 40.6706L43.0486 40.6042C42.3512 40.5575 42.0399 40.5262 41.9949 40.4983L41.9311 40.4588V38.8472C41.9311 37.6316 41.9394 37.2273 41.9651 37.2016C42.0194 37.1473 42.1075 37.1579 43.1032 37.3382ZM31.5267 37.3158C31.5654 37.371 31.5709 37.571 31.5709 38.9195C31.5709 40.3743 31.568 40.463 31.5189 40.512C31.466 40.5649 31.1241 40.6058 30.3619 40.6502C30.0839 40.6663 30.074 40.6648 30.0284 40.5997C29.9861 40.5395 29.9814 40.3891 29.9814 39.1229C29.9814 37.8219 29.9852 37.7085 30.031 37.6534C30.068 37.6089 30.2397 37.5511 30.7051 37.4265C31.0486 37.3345 31.364 37.2578 31.406 37.256C31.4555 37.2538 31.4981 37.275 31.5267 37.3158ZM46.3667 37.9294C46.769 38.0043 47.1138 38.0813 47.133 38.1005C47.1593 38.1267 47.17 38.4385 47.1764 39.3616C47.181 40.036 47.1772 40.6299 47.1678 40.6813C47.1565 40.7429 47.1294 40.7824 47.0884 40.7968C47.0541 40.8088 46.7642 40.8029 46.4442 40.7837C46.1241 40.7644 45.7952 40.7476 45.7133 40.7463C45.6043 40.7446 45.549 40.7287 45.5075 40.6872C45.4523 40.632 45.4507 40.5926 45.4507 39.2631C45.4507 38.0306 45.4553 37.8907 45.4977 37.8439C45.5235 37.8153 45.565 37.7922 45.5899 37.7926C45.6148 37.7929 45.9643 37.8545 46.3667 37.9294ZM29.1704 37.9217C29.2097 37.961 29.215 38.1261 29.215 39.3071C29.215 40.3976 29.2077 40.6579 29.1761 40.7011C29.1426 40.747 29.062 40.7602 28.5909 40.7974C28.0611 40.8392 28.0435 40.8389 28.0054 40.7868C27.946 40.7056 27.9473 38.2119 28.0067 38.1626C28.0545 38.1229 28.939 37.8828 29.0498 37.8794C29.0916 37.8782 29.1458 37.8972 29.1704 37.9217ZM49.396 38.4851C49.7852 38.5574 49.928 38.5949 49.9554 38.6324C49.984 38.6716 49.9922 38.9265 49.9922 39.7823C49.9922 40.7808 49.9877 40.8863 49.9437 40.9302C49.9009 40.9731 49.8509 40.9765 49.5109 40.9602C48.9284 40.9322 48.7438 40.9107 48.6989 40.8658C48.6648 40.8317 48.6581 40.6335 48.6581 39.6511C48.6581 38.6218 48.6636 38.4718 48.7027 38.4326C48.7637 38.3716 48.7998 38.3744 49.396 38.4851ZM51.2248 38.8255C51.5484 38.8765 51.6574 38.9044 51.686 38.9436C51.7155 38.9839 51.7236 39.2107 51.7236 39.9965V40.9981L51.6593 41.0402C51.6045 41.0761 51.5284 41.0781 51.1413 41.0537C50.738 41.0282 50.6821 41.0186 50.6379 40.9665C50.5926 40.9131 50.5882 40.8185 50.5882 39.8956C50.5882 39.0252 50.5944 38.8744 50.6324 38.8201C50.6867 38.7427 50.7004 38.7428 51.2248 38.8255ZM51.6942 42.729C51.7129 42.7638 51.7236 43.146 51.7236 43.7748C51.7236 44.6833 51.7195 44.7693 51.6739 44.8085C51.6283 44.8479 51.5366 44.8697 50.9292 44.9854C50.725 45.0243 50.7216 45.024 50.6553 44.9577L50.5882 44.8906V43.8706C50.5882 42.6407 50.5593 42.7318 50.9596 42.7023C51.1066 42.6915 51.3254 42.6807 51.4459 42.6783C51.6358 42.6746 51.6687 42.6813 51.6942 42.729ZM49.9476 42.8322C49.9866 42.8712 49.9922 43.0163 49.9922 43.9953V45.1138L49.9283 45.1536C49.8932 45.1755 49.6233 45.24 49.3285 45.297C48.8337 45.3927 48.7875 45.3973 48.7254 45.3566L48.6581 45.3125V44.1216V42.9308L48.722 42.8899C48.7628 42.8637 48.9244 42.8394 49.169 42.8225C49.7818 42.7803 49.8971 42.7817 49.9476 42.8322ZM28.6752 43.0022C28.9896 43.0337 29.129 43.0592 29.1649 43.0916C29.2114 43.1338 29.215 43.2323 29.215 44.4809C29.215 45.7869 29.2134 45.8263 29.1582 45.8815C29.127 45.9127 29.0919 45.9381 29.0802 45.9379C29.0685 45.9378 28.829 45.8739 28.548 45.796C28.2319 45.7084 28.0235 45.6361 28.0016 45.6064C27.9555 45.5441 27.9498 43.0981 27.9955 43.0128C28.0319 42.9448 28.0933 42.9438 28.6752 43.0022ZM46.4567 43.0778C46.4961 43.1339 46.5009 43.4917 46.5009 46.353C46.5009 49.3716 46.4979 49.5685 46.4512 49.6218C46.422 49.6552 46 49.8304 45.4223 50.0491C43.8595 50.6407 43.9777 50.6017 43.8999 50.5507L43.8328 50.5068V46.8777C43.8328 43.7552 43.8385 43.244 43.8737 43.2148C43.8997 43.1932 44.3182 43.1522 45.0303 43.1015C46.4702 42.9989 46.4023 43.0001 46.4567 43.0778ZM30.8702 43.215C31.4001 43.2665 31.4774 43.2803 31.5212 43.3317C31.5672 43.3856 31.5709 43.5046 31.5709 44.9337C31.5709 46.4397 31.5695 46.4789 31.5141 46.5343C31.4829 46.5655 31.4474 46.5911 31.4352 46.5911C31.423 46.5911 31.1133 46.5082 30.7469 46.4068C30.2499 46.2694 30.0681 46.2073 30.031 46.1624C29.9852 46.1069 29.9814 45.9933 29.9814 44.6925C29.9814 43.1158 29.9764 43.1566 30.1693 43.1566C30.224 43.1566 30.5394 43.1829 30.8702 43.215ZM42.1468 43.3202C42.2422 43.3839 42.2433 43.43 42.2433 47.324C42.2433 50.9583 42.2404 51.1864 42.1936 51.2407C42.1623 51.2771 41.5293 51.5318 40.4835 51.9288C38.603 52.6426 38.5582 52.6586 38.4879 52.6433C38.4597 52.6371 38.4246 52.6004 38.4098 52.5617C38.3935 52.5187 38.3831 50.7761 38.3831 48.0825C38.3831 43.9092 38.3857 43.6705 38.4332 43.6118C38.4817 43.5519 38.542 43.5458 40.2427 43.4279C41.2103 43.3608 42.0276 43.3044 42.0588 43.3026C42.09 43.3008 42.1296 43.3088 42.1468 43.3202ZM33.9126 43.5129C34.438 43.5624 34.729 43.6015 34.7712 43.6283L34.835 43.6688V45.5371C34.835 47.2809 34.8317 47.4083 34.7854 47.449C34.693 47.5301 34.6135 47.5315 34.3034 47.4574C33.9044 47.362 32.8547 47.0071 32.795 46.9475C32.7533 46.9058 32.7488 46.7338 32.7488 45.197C32.7488 43.5257 32.7499 43.4918 32.8056 43.4502C32.845 43.4208 32.9013 43.4124 32.9901 43.4229C33.0603 43.4313 33.4754 43.4718 33.9126 43.5129Z" fill="white"/>
</svg>
