<svg width="80" height="80" viewBox="0 0 80 80" fill="none" xmlns="http://www.w3.org/2000/svg">
<circle cx="40" cy="40" r="40" fill="#0B8EC2"/>
<path fill-rule="evenodd" clip-rule="evenodd" d="M35.3686 24.0164C35.1475 24.0445 34.9937 24.0899 34.7864 24.1883C34.2014 24.466 33.7557 24.996 33.6188 25.577C33.5643 25.8081 33.5629 26.2275 33.6157 26.4767C33.7721 27.2142 34.4464 27.8633 35.2042 28.0058C35.4983 28.0611 35.6625 28.0411 36.1126 27.895C36.7153 27.6993 37.3882 27.5355 38.1227 27.4055L38.4553 27.3467L38.5311 27.4074C38.5728 27.4408 38.7054 27.5268 38.8258 27.5984C38.9461 27.67 39.0615 27.739 39.0822 27.7516C39.1182 27.7735 39.1223 28.0059 39.118 29.7657L39.1175 29.948H38.7149C38.3267 29.948 38.308 29.9508 38.1905 30.027C37.9461 30.1855 37.9473 30.5289 38.1927 30.6785C38.283 30.7336 38.3549 30.7355 40.4113 30.7356C42.8063 30.7357 42.6511 30.7506 42.768 30.5093C42.8384 30.3637 42.8264 30.2311 42.7318 30.1108C42.62 29.9687 42.5388 29.948 42.0947 29.948H41.6848V28.8598V27.7716L41.8088 27.7086C41.9443 27.6398 42.0994 27.5497 42.1225 27.5264C42.1305 27.5183 42.1868 27.4745 42.2476 27.4292C42.3433 27.3579 42.3747 27.3494 42.481 27.3665C42.7887 27.416 43.6514 27.5964 43.9021 27.6637C44.0545 27.7046 44.2055 27.7444 44.2376 27.7522C44.2697 27.7599 44.46 27.8185 44.6606 27.8825C45.1887 28.0511 45.3037 28.0645 45.6351 27.9968C46.0373 27.9147 46.3299 27.7534 46.6482 27.4385C46.8441 27.2446 46.9255 27.1379 47.0154 26.9568C47.1946 26.5963 47.2406 26.3999 47.2375 26.0095C47.233 25.436 47.0683 25.061 46.6264 24.6185C46.3924 24.3841 46.3215 24.3325 46.0569 24.2043C45.5568 23.9621 45.2846 23.9521 44.6627 24.1532C44.0485 24.3518 42.9353 24.6133 42.5267 24.6551C42.3371 24.6745 42.3299 24.6726 42.1992 24.5728C42.0015 24.4219 41.5604 24.2113 41.2618 24.1255C40.9449 24.0343 40.2983 23.9983 39.9132 24.0502C39.472 24.1097 38.865 24.3573 38.6087 24.5823C38.4948 24.6823 38.4184 24.688 38.0632 24.6226C37.389 24.4985 36.578 24.2991 36.1126 24.1431C35.8785 24.0646 35.5558 23.9912 35.4873 24.0009C35.4702 24.0032 35.4168 24.0102 35.3686 24.0164ZM37.2141 31.0108C37.0314 31.0757 36.9905 31.1514 36.9845 31.4359C36.9748 31.8995 36.9895 31.9565 37.1428 32.05C37.2334 32.1052 37.3183 32.1067 40.3968 32.1068C43.8648 32.1069 43.6866 32.116 43.794 31.9342C43.8327 31.8685 43.8437 31.7792 43.8437 31.5301C43.8437 31.2555 43.8356 31.2 43.7859 31.1369C43.6489 30.9626 43.7847 30.9693 40.4083 30.9707C37.9194 30.9718 37.3022 30.9795 37.2141 31.0108ZM37.2722 33.2957C37.2592 34.3281 37.2461 34.4176 37.0509 34.8201C36.8031 35.3308 36.2448 35.6725 35.4999 35.7693C34.5637 35.8911 33.9353 36.059 33.1514 36.397C31.5448 37.0897 30.1866 38.4166 29.2918 40.1676C28.9737 40.79 28.6901 41.497 28.5403 42.0407C28.5138 42.137 28.4808 42.2486 28.4668 42.2887C28.4454 42.3505 28.2623 43.1002 28.2195 43.3017C28.1611 43.576 28.0863 44.095 28.0706 44.3344L28.0517 44.623L30.0901 44.6155L32.1284 44.608L32.205 44.2288C32.5249 42.644 33.1023 41.5945 33.9548 41.048C34.6755 40.5861 35.6094 40.4563 36.4333 40.7035C36.8021 40.8142 37.1398 41.0043 37.5006 41.3047C37.5821 41.3725 37.7987 41.5536 37.982 41.7071C38.5282 42.1644 38.8524 42.3578 39.3217 42.5059C39.7467 42.6401 39.9947 42.6745 40.547 42.6758C41.497 42.678 42.0651 42.4876 42.928 41.8777C44.1368 41.0233 44.4122 40.8685 44.9986 40.7142C45.5309 40.574 45.6438 40.5676 47.5853 40.5675L49.416 40.5674V38.2626V35.9579L47.454 35.9576C46.2831 35.9575 45.4194 35.9457 45.3118 35.9282C44.7349 35.8346 44.3273 35.5703 44.0341 35.0999C43.7234 34.6014 43.5812 33.8956 43.5812 32.852V32.3695H40.4325H37.2839L37.2722 33.2957ZM50.321 35.1538C50.2045 35.504 49.9326 35.8348 49.717 35.8889L49.6497 35.9058L49.6498 38.2585L49.6499 40.6112L49.8104 40.6978C50.0413 40.8225 50.2379 41.0957 50.3361 41.428L50.3706 41.5447L51.5854 41.5523L52.8002 41.56V38.263V34.966H51.5919H50.3835L50.321 35.1538ZM27.8776 44.9253C27.6957 45.0939 27.593 45.4897 27.6542 45.7864C27.695 45.984 27.7768 46.152 27.8776 46.2454L27.9523 46.3147H30.0899H32.2275L32.3206 46.2199C32.4583 46.0798 32.5241 45.8779 32.5241 45.596C32.5242 45.3003 32.4578 45.0834 32.3275 44.953L32.2305 44.856H30.0914H27.9523L27.8776 44.9253ZM29.7673 47.5036C29.68 47.8806 29.4359 48.587 29.2834 48.9039C29.1256 49.2317 29.034 49.3905 28.7995 49.7427C28.5637 50.0968 28.5659 50.0938 28.219 50.5304C27.6872 51.1997 27.4954 51.5205 27.3119 52.0474L27.2002 52.3683L27.2009 52.9372C27.2015 53.4721 27.2063 53.5218 27.2811 53.7687C27.5717 54.7272 28.275 55.4623 29.1691 55.7422C29.3617 55.8025 29.444 55.8105 29.8547 55.8093C30.3033 55.8079 30.3323 55.8041 30.5987 55.7129C30.9305 55.5993 31.1302 55.4907 31.3855 55.285C32.3951 54.4715 32.7809 53.1049 32.3318 51.932C32.1424 51.4372 31.9899 51.1896 31.4866 50.5594C30.5874 49.4335 30.2079 48.6907 29.9104 47.4744C29.8839 47.3661 29.8527 47.2775 29.841 47.2775C29.8293 47.2775 29.7961 47.3792 29.7673 47.5036ZM31.4741 51.5879C31.9865 52.1583 32.1008 53.0597 31.7491 53.7579C31.6559 53.943 31.3507 54.3376 31.3008 54.3376C31.2878 54.3376 31.2891 54.2752 31.3037 54.199C31.4525 53.4205 31.4525 52.3374 31.3037 51.5588C31.2891 51.4826 31.2876 51.4202 31.3003 51.4202C31.313 51.4202 31.3912 51.4957 31.4741 51.5879Z" fill="white"/>
</svg>
