<svg width="18" height="14" viewBox="0 0 18 14" fill="none" xmlns="http://www.w3.org/2000/svg">
<path fill-rule="evenodd" clip-rule="evenodd" d="M17.3337 1.91147C16.7139 2.17916 16.0535 2.3566 15.3649 2.44275C16.0732 2.02634 16.6139 1.37198 16.868 0.583264C16.2076 0.970957 15.4785 1.2448 14.7014 1.39762C14.0743 0.740187 13.1805 0.333008 12.2055 0.333008C10.3139 0.333008 8.79095 1.8448 8.79095 3.69814C8.79095 3.9648 8.81387 4.22121 8.87012 4.46531C6.02949 4.3289 3.51595 2.98839 1.82741 0.946341C1.53262 1.44993 1.3597 2.02634 1.3597 2.64685C1.3597 3.81198 1.96908 4.8448 2.87741 5.44275C2.32845 5.43249 1.78991 5.27557 1.33366 5.02839C1.33366 5.03865 1.33366 5.05198 1.33366 5.06532C1.33366 6.70019 2.51803 8.05814 4.07116 8.37096C3.79303 8.44583 3.48991 8.48173 3.17533 8.48173C2.95658 8.48173 2.73574 8.46942 2.52845 8.42429C2.97116 9.7566 4.22741 10.7361 5.72116 10.7679C4.55866 11.6633 3.08262 12.2028 1.4847 12.2028C1.20449 12.2028 0.935742 12.1904 0.666992 12.1566C2.18053 13.1176 3.97428 13.6663 5.90866 13.6663C12.1962 13.6663 15.6337 8.53814 15.6337 4.09301C15.6337 3.94429 15.6285 3.8007 15.6212 3.65814C16.2993 3.18429 16.8691 2.5925 17.3337 1.91147Z" fill="white"/>
</svg>
